<svg width="30" height="30" viewBox="0 0 30 30" fill="none" xmlns="http://www.w3.org/2000/svg">
<g id="camera-01">
<path id="Vector" d="M9 7.80176C7.53523 7.80615 6.72459 7.84119 6.05847 8.12078C5.12544 8.5124 4.36561 9.23579 3.92173 10.1551C3.55941 10.9054 3.50012 11.8667 3.38155 13.7894L3.19574 16.8023C2.90086 21.5835 2.75342 23.9742 4.15642 25.4876C5.55942 27.0012 7.92302 27.0012 12.6503 27.0012H17.3497C22.077 27.0012 24.4406 27.0012 25.8436 25.4876C27.2466 23.9742 27.0991 21.5835 26.8043 16.8023L26.6184 13.7894C26.4998 11.8667 26.4406 10.9054 26.0783 10.1551C25.6344 9.23579 24.8746 8.5124 23.9416 8.12078C23.2754 7.84119 22.4647 7.80615 21 7.80176" stroke="#138BD5" stroke-width="1.8" stroke-linecap="round"/>
<path id="Vector_2" d="M21 9.00049L19.937 6.343C19.4784 5.19644 19.0793 3.89581 17.8999 3.31195C17.2709 3.00049 16.5139 3.00049 15 3.00049C13.4861 3.00049 12.7291 3.00049 12.1 3.31195C10.9207 3.89581 10.5216 5.19644 10.063 6.343L9 9.00049" stroke="#138BD5" stroke-width="1.8" stroke-linecap="round" stroke-linejoin="round"/>
<path id="Vector_3" d="M19.2008 17.4007C19.2008 19.7203 17.3204 21.6007 15.0008 21.6007C12.6812 21.6007 10.8008 19.7203 10.8008 17.4007C10.8008 15.0811 12.6812 13.2007 15.0008 13.2007C17.3204 13.2007 19.2008 15.0811 19.2008 17.4007Z" stroke="#138BD5" stroke-width="1.8"/>
<path id="Vector_4" d="M15 7.80054H15.0108" stroke="#138BD5" stroke-width="2.4" stroke-linecap="round" stroke-linejoin="round"/>
</g>
</svg>
