<svg width="30" height="30" viewBox="0 0 30 30" fill="none" xmlns="http://www.w3.org/2000/svg">
<g id="image-01">
<path id="Vector" d="M9.60078 11.4005C10.5949 11.4005 11.4008 10.5946 11.4008 9.60054C11.4008 8.60642 10.5949 7.80054 9.60078 7.80054C8.60667 7.80054 7.80078 8.60642 7.80078 9.60054C7.80078 10.5946 8.60667 11.4005 9.60078 11.4005Z" stroke="#138BD5" stroke-width="1.8" stroke-linecap="round" stroke-linejoin="round"/>
<path id="Vector_2" d="M3.60156 15.0006C3.60156 9.62658 3.60156 6.93957 5.27105 5.27007C6.94055 3.60059 9.62755 3.60059 15.0016 3.60059C20.3755 3.60059 23.0626 3.60059 24.7321 5.27007C26.4016 6.93957 26.4016 9.62658 26.4016 15.0006C26.4016 20.3745 26.4016 23.0616 24.7321 24.7311C23.0626 26.4006 20.3755 26.4006 15.0016 26.4006C9.62755 26.4006 6.94055 26.4006 5.27105 24.7311C3.60156 23.0616 3.60156 20.3745 3.60156 15.0006Z" stroke="#138BD5" stroke-width="1.8"/>
<path id="Vector_3" d="M6.60156 25.8003C11.8485 19.5305 17.7305 11.2613 26.3986 16.8513" stroke="#138BD5" stroke-width="1.8"/>
</g>
</svg>
