<svg width="30" height="30" viewBox="0 0 30 30" fill="none" xmlns="http://www.w3.org/2000/svg">
<g id="limitation">
<path id="Vector" d="M16.8008 13.2008L22.2008 6.60083" stroke="#138BD5" stroke-width="1.8" stroke-linejoin="round"/>
<path id="Vector_2" d="M15.0012 16.8007C15.9953 16.8007 16.8012 15.9948 16.8012 15.0007C16.8012 14.0066 15.9953 13.2007 15.0012 13.2007C14.0071 13.2007 13.2012 14.0066 13.2012 15.0007C13.2012 15.9948 14.0071 16.8007 15.0012 16.8007Z" stroke="#138BD5" stroke-width="1.8" stroke-linejoin="round"/>
<path id="Vector_3" d="M19.8 23.3995L22.2012 25.8007C25.1152 23.6113 27 20.1261 27 16.2007C27 9.57326 21.6274 4.20068 15 4.20068C8.37258 4.20068 3 9.57326 3 16.2007C3 20.1261 4.88483 23.6113 7.79882 25.8007L10.2 23.3995" stroke="#138BD5" stroke-width="1.8"/>
</g>
</svg>
