<svg width="30" height="30" viewBox="0 0 30 30" fill="none" xmlns="http://www.w3.org/2000/svg">
<g id="view">
<path id="Vector" d="M26.4528 13.8543C26.8176 14.3659 27 14.6217 27 15.0003C27 15.3789 26.8176 15.6348 26.4528 16.1463C24.8135 18.4451 20.627 23.4003 15 23.4003C9.37294 23.4003 5.18652 18.4451 3.54725 16.1463C3.18241 15.6348 3 15.3789 3 15.0003C3 14.6217 3.18241 14.3659 3.54725 13.8543C5.18652 11.5557 9.37294 6.60034 15 6.60034C20.627 6.60034 24.8135 11.5557 26.4528 13.8543Z" stroke="#138BD5" stroke-width="1.8"/>
<path id="Vector_2" d="M18.6004 15.0004C18.6004 13.0121 16.9887 11.4004 15.0004 11.4004C13.0121 11.4004 11.4004 13.0121 11.4004 15.0004C11.4004 16.9887 13.0121 18.6004 15.0004 18.6004C16.9887 18.6004 18.6004 16.9887 18.6004 15.0004Z" stroke="#138BD5" stroke-width="1.8"/>
</g>
</svg>
